<?xml version="1.0"?>
<svg xmlns="http://www.w3.org/2000/svg" class="" viewBox="0 0 512 512" width="512px" height="512px"><g><path class="active-path" d="m 437.02 74.9805 c -48.3516 -48.3516 -112.641 -74.9805 -181.02 -74.9805 s -132.668 26.6289 -181.02 74.9805 c -48.3516 48.3516 -74.9805 112.641 -74.9805 181.02 s 26.6289 132.668 74.9805 181.02 c 48.3516 48.3516 112.641 74.9805 181.02 74.9805 s 132.668 -26.6289 181.02 -74.9805 c 48.3516 -48.3516 74.9805 -112.641 74.9805 -181.02 s -26.6289 -132.668 -74.9805 -181.02 Z m -181.02 397.02 c -119.102 0 -216 -96.8984 -216 -216 s 96.8984 -216 216 -216 s 216 96.8984 216 216 s -96.8984 216 -216 216 Z m 20 -236.02 h 90 v 40 h -90 v 90 h -40 v -90 h -90 v -40 h 90 v -90 h 40 Z m 0 0" data-original="#000000" data-old_color="#000000" fill="#00FF00"/></g> </svg>
